HIERARCHY
ROOT Hips
{
	OFFSET 0.000000 89.005402 0.000000
	CHANNELS 6 Xposition Yposition Zposition Xrotation Yrotation Zrotation
	JOINT Spine
	{
		OFFSET 0.116900 10.681000 0.373400
		CHANNELS 3 Xrotation Yrotation Zrotation
		JOINT Spine1
		{
			OFFSET 0.000000 13.840401 0.053500
			CHANNELS 3 Xrotation Yrotation Zrotation
			JOINT Spine2
			{
				OFFSET 0.000000 14.712700 -0.366200
				CHANNELS 3 Xrotation Yrotation Zrotation
				JOINT Neck
				{
					OFFSET 0.000000 35.415497 -3.314200
					CHANNELS 3 Xrotation Yrotation Zrotation
					JOINT Head
					{
						OFFSET 0.000000 16.899200 1.218300
						CHANNELS 3 Xrotation Yrotation Zrotation
						JOINT HeadTop_End
						{
							OFFSET 0.000000 22.206207 2.192500
							CHANNELS 3 Xrotation Yrotation Zrotation
							End Site
							{
								OFFSET 0.000000 22.314178 0.000000
							}
						}
					}
				}
				JOINT LeftShoulder
				{
					OFFSET 12.896400 26.716293 -4.548400
					CHANNELS 3 Xrotation Yrotation Zrotation
					JOINT LeftArm
					{
						OFFSET 19.027000 -4.857010 -1.718400
						CHANNELS 3 Xrotation Yrotation Zrotation
						JOINT LeftForeArm
						{
							OFFSET 24.179897 0.000000 0.000000
							CHANNELS 3 Xrotation Yrotation Zrotation
							JOINT LeftHand
							{
								OFFSET 27.156403 0.000000 0.000000
								CHANNELS 3 Xrotation Yrotation Zrotation
								JOINT LeftHandIndex1
								{
									OFFSET 16.441200 0.000000 0.000000
									CHANNELS 3 Xrotation Yrotation Zrotation
									JOINT LeftHandIndex2
									{
										OFFSET 4.821899 0.000000 0.000000
										CHANNELS 3 Xrotation Yrotation Zrotation
										JOINT LeftHandIndex3
										{
											OFFSET 6.386497 0.000000 0.000000
											CHANNELS 3 Xrotation Yrotation Zrotation
											JOINT LeftHandIndex4
											{
												OFFSET 5.188988 0.000000 0.000000
												CHANNELS 3 Xrotation Yrotation Zrotation
												End Site
												{
													OFFSET -0.178703 5.185913 0.000177
												}
											}
										}
									}
								}
								JOINT LeftHandThumb1
								{
									OFFSET 6.534897 -5.032593 5.900300
									CHANNELS 3 Xrotation Yrotation Zrotation
									JOINT LeftHandThumb2
									{
										OFFSET 3.818176 -2.204422 2.204423
										CHANNELS 3 Xrotation Yrotation Zrotation
										JOINT LeftHandThumb3
										{
											OFFSET 3.252098 -1.877594 1.877601
											CHANNELS 3 Xrotation Yrotation Zrotation
											JOINT LeftHandThumb4
											{
												OFFSET 5.251778 -3.032120 3.032117
												CHANNELS 3 Xrotation Yrotation Zrotation
												End Site
												{
													OFFSET 0.000023 6.780014 0.000000
												}
											}
										}
									}
								}
							}
						}
					}
				}
				JOINT RightShoulder
				{
					OFFSET -12.896300 26.716293 -4.548400
					CHANNELS 3 Xrotation Yrotation Zrotation
					JOINT RightArm
					{
						OFFSET -19.027000 -4.857010 -1.718400
						CHANNELS 3 Xrotation Yrotation Zrotation
						JOINT RightForeArm
						{
							OFFSET -24.179897 0.000000 0.000000
							CHANNELS 3 Xrotation Yrotation Zrotation
							JOINT RightHand
							{
								OFFSET -27.156403 0.000000 0.000000
								CHANNELS 3 Xrotation Yrotation Zrotation
								JOINT RightHandThumb1
								{
									OFFSET -6.591202 -4.852203 5.988100
									CHANNELS 3 Xrotation Yrotation Zrotation
									JOINT RightHandThumb2
									{
										OFFSET -3.818176 -2.204422 2.204423
										CHANNELS 3 Xrotation Yrotation Zrotation
										JOINT RightHandThumb3
										{
											OFFSET -3.252098 -1.877594 1.877601
											CHANNELS 3 Xrotation Yrotation Zrotation
											JOINT RightHandThumb4
											{
												OFFSET -5.251778 -3.032120 3.032117
												CHANNELS 3 Xrotation Yrotation Zrotation
												End Site
												{
													OFFSET -0.000023 6.780014 0.000000
												}
											}
										}
									}
								}
								JOINT RightHandIndex1
								{
									OFFSET -16.029404 0.000000 0.000000
									CHANNELS 3 Xrotation Yrotation Zrotation
									JOINT RightHandIndex2
									{
										OFFSET -5.213303 0.000000 0.000000
										CHANNELS 3 Xrotation Yrotation Zrotation
										JOINT RightHandIndex3
										{
											OFFSET -6.386528 0.000000 0.000000
											CHANNELS 3 Xrotation Yrotation Zrotation
											JOINT RightHandIndex4
											{
												OFFSET -5.189026 0.000000 0.000000
												CHANNELS 3 Xrotation Yrotation Zrotation
												End Site
												{
													OFFSET 0.236702 5.183624 0.001972
												}
											}
										}
									}
								}
							}
						}
					}
				}
			}
		}
	}
	JOINT LeftUpLeg
	{
		OFFSET 14.073000 -7.904099 -1.463000
		CHANNELS 3 Xrotation Yrotation Zrotation
		JOINT LeftLeg
		{
			OFFSET -0.109806 -34.073280 4.093200
			CHANNELS 3 Xrotation Yrotation Zrotation
			JOINT LeftFoot
			{
				OFFSET 0.109806 -29.899420 -6.319000
				CHANNELS 3 Xrotation Yrotation Zrotation
				JOINT LeftToeBase
				{
					OFFSET 1.551100 -14.988700 20.535801
					CHANNELS 3 Xrotation Yrotation Zrotation
					JOINT LeftToe_End
					{
						OFFSET 0.221200 0.570800 13.248301
						CHANNELS 3 Xrotation Yrotation Zrotation
						End Site
						{
							OFFSET 0.000000 13.262435 0.000000
						}
					}
				}
			}
		}
	}
	JOINT RightUpLeg
	{
		OFFSET -13.839300 -7.904099 -1.463000
		CHANNELS 3 Xrotation Yrotation Zrotation
		JOINT RightLeg
		{
			OFFSET 0.109694 -34.073219 4.093300
			CHANNELS 3 Xrotation Yrotation Zrotation
			JOINT RightFoot
			{
				OFFSET -0.109694 -29.899384 -6.319200
				CHANNELS 3 Xrotation Yrotation Zrotation
				JOINT RightToeBase
				{
					OFFSET -1.551100 -14.988700 20.535801
					CHANNELS 3 Xrotation Yrotation Zrotation
					JOINT RightToe_End
					{
						OFFSET -0.221200 0.570900 13.248299
						CHANNELS 3 Xrotation Yrotation Zrotation
						End Site
						{
							OFFSET 0.000000 13.262440 0.000000
						}
					}
				}
			}
		}
	}
}
MOTION
Frames: 9
Frame Time: 0.033333
-0.161918 83.615013 -0.994966 23.838704 86.710242 -30.556579 5.111347 -11.594436 6.202891 1.947792 -16.732070 2.697898 1.778327 -16.701904 2.997786 3.510650 -5.310835 1.194627 -10.757241 -37.995752 1.666326 -0.000000 0.000000 -0.000000 1.033461 -22.212067 -13.140097 -2.553922 -7.014908 -60.789052 0.000007 -21.914520 0.000013 18.750857 -24.110361 23.977261 -0.334610 2.512118 -16.448697 0.079833 1.633948 -8.372127 0.024820 0.744555 -9.450734 -0.000000 0.000003 0.000000 7.328782 1.003441 0.644316 0.550414 18.755286 10.254526 2.911753 12.655683 0.190145 -0.000000 -0.000000 0.000004 4.231477 -2.042263 12.814100 9.050920 12.477684 63.628171 0.000004 17.269336 0.000002 40.000071 0.486143 20.458298 7.328789 -1.003421 -0.644324 0.550411 -18.755281 -10.254541 2.810807 -11.773994 0.561315 0.000001 0.000003 -0.000001 -0.334600 -2.512114 16.448704 0.079832 -1.633945 8.372139 -0.195371 -0.141253 13.125198 0.000001 -0.000001 -0.000002 -11.627307 4.281648 7.088820 61.045492 10.102575 5.749628 10.561505 5.670067 -6.542836 -48.868774 16.185865 -15.458351 -0.000000 0.000002 -0.000001 -17.649137 -1.895023 16.134679 19.736697 -6.255266 -3.406725 -4.668075 -6.304814 -5.499462 -1.680363 -0.000029 0.000002 0.000000 -0.000000 0.000000 
5.676811 85.220665 -0.970512 22.009489 86.313784 -27.794439 4.636794 -10.219486 5.093808 1.874215 -16.316453 2.502607 1.707697 -16.283598 2.801718 4.151722 -5.622245 1.409302 -10.108050 -39.161200 2.232479 0.000000 -0.000000 0.000000 0.930031 -22.167184 -13.879600 -2.391038 -0.447760 -62.121588 0.000002 -14.326928 -0.000011 22.961704 -25.128225 22.466200 -0.379426 2.798268 -13.841207 0.031949 1.190998 -3.960910 -0.017465 0.254928 -4.604848 0.000000 -0.000000 -0.000000 7.326350 0.996902 0.642204 3.712609 20.472015 9.516029 3.111376 7.363577 -0.145945 -0.000000 -0.000000 0.000002 4.141521 -1.277253 12.689527 4.718884 16.890409 62.597065 0.000001 17.808921 -0.000012 36.014320 0.934513 14.520072 5.728904 -2.483661 -2.726101 2.180912 -19.685695 -9.271291 2.834153 -11.830431 0.583337 -0.000001 -0.000002 -0.000000 -0.403778 -2.132154 14.720084 0.055756 -1.449949 6.535056 -0.196698 0.064627 11.155321 0.000001 -0.000001 -0.000002 -18.878851 2.239013 4.659148 61.535210 10.374335 5.278466 1.667366 5.837920 -4.200076 -36.820037 8.280839 -11.323650 0.000001 -0.000000 -0.000000 -10.042332 -1.962868 15.093499 14.938679 -6.691287 -4.470240 -6.477445 -3.145976 -4.154049 -3.621693 0.000029 0.000001 -0.000000 0.000000 -0.000000 
11.481319 86.136932 -1.052257 18.890696 85.441896 -23.813975 4.319497 -8.674549 4.230628 1.852834 -15.841849 2.374126 1.688008 -15.805357 2.673611 4.561617 -5.915795 1.486141 -10.413029 -40.023488 2.098508 0.000000 -0.000000 0.000000 0.854264 -21.974298 -14.568575 -1.613217 6.534904 -62.852746 0.000008 -8.237566 0.000001 28.302064 -24.859706 22.736163 -0.358107 3.100341 -11.792543 0.019164 0.900704 -1.084736 -0.022582 -0.074185 -1.360034 0.000000 -0.000000 -0.000003 7.325265 0.994173 0.641421 7.818682 20.807302 8.662139 3.625271 3.393001 -0.513392 0.000001 -0.000000 0.000002 3.911874 0.102008 11.614456 2.355390 22.403955 60.870113 -0.000012 20.242881 0.000012 27.497192 1.181843 10.611082 5.529016 -2.854837 -3.022647 2.392347 -20.047631 -9.095624 2.817873 -11.791289 0.567630 -0.000000 0.000000 -0.000002 -0.444475 -1.632637 11.998804 0.032465 -1.198231 4.032660 -0.185707 0.368357 8.247139 0.000001 -0.000000 -0.000001 -24.959738 0.998126 3.010017 57.616184 9.880079 4.681651 -2.003606 5.068575 -1.829999 -25.391851 4.111169 -8.448416 -0.000001 0.000000 0.000000 -4.154891 -2.904048 13.372089 13.191276 -5.651450 -4.306430 -8.637502 -0.901941 -3.213727 -6.426255 -0.000014 -0.000000 -0.000001 -0.000000 -0.000000 
17.282387 86.409218 -1.182295 16.990977 83.992407 -21.032157 4.027387 -7.017017 3.543798 1.809007 -15.334680 2.300667 1.643762 -15.294255 2.601157 4.714725 -6.161360 1.349486 -11.460169 -40.506334 1.262191 0.000000 0.000000 -0.000000 0.831313 -21.515750 -15.147729 0.045927 13.517297 -63.372763 -0.000005 -4.255591 0.000021 32.721971 -22.574265 22.877517 -0.247121 3.043288 -8.819043 0.018124 0.786392 -0.000009 -0.019155 -0.212890 0.007616 0.000000 0.000000 -0.000000 7.330286 1.007654 0.645809 10.438679 19.742160 8.658819 4.006685 1.518058 -0.676073 -0.000000 0.000000 0.000001 3.649006 1.868093 9.762739 1.370792 28.056134 58.458285 -0.000002 23.986455 0.000005 16.656173 1.409389 8.615367 6.449733 -1.996009 -1.835586 1.372721 -20.106988 -9.556757 2.759556 -11.650301 0.511876 -0.000001 0.000001 0.000001 -0.444333 -1.098521 9.199166 0.020587 -0.960606 1.677624 -0.155574 0.703396 5.028049 0.000001 0.000000 0.000000 -30.334714 0.573948 2.283526 51.316970 9.734448 4.188490 -4.532137 3.870515 -0.983092 -8.495205 0.978483 -5.775171 0.000000 0.000000 -0.000000 1.344860 -4.634636 11.102392 12.955727 -2.608036 -3.319343 -11.681743 0.228023 -2.844748 -8.723398 0.000022 0.000002 0.000000 0.000000 0.000000 
23.136280 86.180695 -1.313272 16.988601 82.094721 -20.166830 3.656012 -5.376742 3.049740 1.672761 -14.844176 2.260088 1.504617 -14.800598 2.560970 4.626816 -6.337136 0.976297 -12.757824 -40.630753 -0.025724 -0.000000 0.000000 -0.000000 0.910887 -20.645287 -15.474851 2.907702 19.854703 -64.311900 -0.000003 -2.598947 -0.000011 33.925133 -18.666837 20.710882 -0.028980 2.453721 -4.163462 0.018125 0.790536 -0.000014 -0.019469 -0.204096 -0.079108 -0.000001 -0.000000 -0.000001 7.338190 1.028465 0.652313 10.091416 17.822962 9.906926 3.960840 1.709620 -0.514640 -0.000001 -0.000001 0.000002 3.458801 3.648594 7.575636 0.459705 32.615550 55.795836 0.000002 28.156080 -0.000002 7.334276 1.423233 7.630765 7.655298 -0.060051 -0.012169 -0.224929 -20.229244 -10.235369 2.669178 -11.430296 0.425514 -0.000000 0.000001 0.000001 -0.435750 -0.631408 7.379755 0.018175 -0.813857 0.225388 -0.115570 0.984350 2.312185 -0.000001 -0.000002 0.000000 -34.525988 0.906684 2.304193 41.383116 9.057042 3.697093 -5.578139 2.290615 -0.886566 1.152298 -0.000020 0.000002 -0.000000 -0.000000 -0.000000 6.181673 -7.045780 8.214656 11.221015 1.965146 -1.331875 -14.285260 0.509050 -3.234129 -9.502543 0.000009 0.000001 0.000000 -0.000001 -0.000000 
28.905018 85.534836 -1.443195 18.007324 80.153588 -20.341065 3.200208 -3.960285 2.646084 1.445978 -14.423553 2.233476 1.273294 -14.378177 2.533130 4.382002 -6.446181 0.470166 -13.778392 -40.542760 -1.317473 0.000000 0.000000 -0.000000 1.138507 -19.309442 -15.324440 6.981098 25.000984 -66.166057 -0.000002 -2.713831 0.000007 31.276437 -14.085980 15.821491 0.275164 1.656282 0.852785 0.018251 0.829198 -0.377049 -0.021051 -0.152625 -0.586698 0.000000 -0.000001 0.000000 7.335219 1.020046 0.649263 7.726908 15.911776 11.702821 3.597495 2.812862 -0.179252 0.000001 -0.000001 -0.000001 3.361035 5.119443 5.604396 -1.774730 35.350689 53.682627 0.000001 32.005017 -0.000002 2.723299 1.460053 6.454136 8.369736 2.319020 1.504948 -1.644951 -20.695811 -10.714603 2.564031 -11.172022 0.325096 0.000000 -0.000000 -0.000001 -0.466246 -0.268181 7.031582 0.018137 -0.783079 -0.000015 -0.083824 1.158841 0.614685 0.000000 -0.000000 0.000000 -37.309994 1.633678 2.656813 28.942606 7.154000 3.192090 -5.957815 1.251322 -1.326082 0.891272 -0.000037 -0.000004 -0.000001 -0.000000 -0.000000 11.090014 -9.556164 5.504725 9.317502 6.188968 0.606049 -17.259219 0.635039 -4.508842 -9.763278 0.000038 0.000004 0.000000 0.000001 0.000000 
34.557751 84.590088 -1.580579 18.801438 78.573731 -20.427399 2.777168 -2.893973 2.294519 1.218405 -14.100896 2.214763 1.041425 -14.055375 2.512300 4.114661 -6.509981 0.044720 -14.308891 -40.391136 -2.242362 0.000000 -0.000000 0.000000 1.485630 -17.693487 -14.512793 11.671802 28.937411 -68.903563 -0.000003 -3.530394 0.000007 26.336205 -9.159022 9.820707 0.466670 1.248969 3.578223 0.018328 0.840664 -0.490555 -0.021493 -0.134481 -0.765526 0.000000 0.000001 0.000000 7.314445 0.964805 0.631660 5.821744 14.973902 12.778091 3.340853 3.433240 0.051965 0.000001 -0.000003 -0.000001 3.316123 6.186520 4.197653 -5.443111 36.397313 52.506400 0.000004 35.286957 -0.000016 3.028362 1.799894 4.496966 8.547766 4.478246 2.416990 -2.621376 -21.397449 -10.929745 2.454537 -10.900809 0.220817 0.000001 0.000001 0.000002 -0.571365 0.038113 7.671400 0.018144 -0.784561 -0.000020 -0.066656 1.242693 -0.204563 0.000000 -0.000001 0.000001 -38.607958 2.313272 3.097387 17.336087 5.265617 2.770014 -7.033709 0.762902 -2.401949 0.458521 -0.000015 -0.000007 0.000001 0.000000 0.000000 15.275214 -11.525762 3.380185 8.424035 8.739841 1.401260 -20.072738 0.733297 -5.314478 -12.089057 0.000015 0.000002 -0.000000 -0.000000 -0.000000 
40.263344 83.567902 -1.720407 18.462729 77.555179 -19.609734 2.482112 -2.212608 1.964517 1.090187 -13.879389 2.192187 0.911069 -13.835130 2.488916 3.962323 -6.547840 -0.090217 -14.392148 -40.225398 -2.637437 -0.000000 0.000000 0.000000 1.828888 -16.251537 -13.124250 16.075757 32.143775 -72.156980 0.000004 -3.999066 -0.000002 21.532547 -4.048869 4.724342 0.396619 1.529512 2.693923 0.018313 0.838270 -0.466674 -0.021426 -0.137684 -0.734009 0.000003 0.000001 -0.000000 7.304857 0.940407 0.624529 6.001152 15.425562 12.521751 3.480195 3.049622 0.062044 0.000001 0.000002 0.000001 3.297854 6.851475 3.453130 -9.275352 36.424064 52.074824 -0.000003 37.991264 0.000006 6.031058 2.629884 1.704555 8.642950 6.101960 3.050819 -3.374586 -21.929868 -11.116176 2.345838 -10.629157 0.117463 -0.000000 -0.000000 -0.000002 -0.684065 0.342699 8.370740 0.018129 -0.794539 0.033997 -0.056532 1.289450 -0.662473 -0.000003 -0.000003 0.000001 -40.018095 2.763327 2.999993 12.544477 4.762147 2.682020 -9.396133 0.326031 -1.643132 -0.398600 -0.000003 -0.000006 0.000002 0.000000 0.000000 18.743805 -12.373729 1.969641 9.252482 8.803905 0.361060 -22.100329 0.827773 -4.439423 -17.013827 0.000011 0.000003 -0.000001 0.000002 0.000000 
46.146786 82.698151 -1.864732 16.687764 77.083739 -17.376747 2.295817 -1.945260 1.466700 1.084383 -13.761476 2.131906 0.905952 -13.719434 2.430624 3.971583 -6.563261 0.120805 -14.092541 -40.027497 -2.527896 0.000000 -0.000000 0.000000 2.047934 -15.494037 -11.643183 19.544197 34.983741 -75.495338 0.000004 -3.596489 -0.000009 18.503691 0.786565 1.323709 0.240557 2.245847 -0.491400 0.018997 0.891463 -0.993260 -0.022443 -0.084181 -1.261467 -0.000001 -0.000004 -0.000005 7.377962 1.135582 0.687140 7.834058 16.547713 11.525064 3.909835 2.264838 -0.000970 -0.000001 0.000000 0.000000 3.298633 7.018413 3.337643 -11.846926 36.236937 52.054688 -0.000010 40.063530 0.000008 9.307478 4.282584 -1.890870 9.001659 7.212594 3.786884 -4.141486 -22.056025 -11.466233 2.248269 -10.383166 0.024530 0.000001 0.000001 -0.000001 -0.749623 0.620444 8.586478 0.018120 -0.790600 -0.000031 -0.045728 1.337472 -1.133558 0.000000 -0.000002 0.000001 -41.317969 3.107406 2.455529 14.505918 5.864108 2.659501 -9.791635 0.261098 0.353803 -1.842679 -0.000000 0.000012 0.000002 -0.000000 0.000000 21.417322 -12.065554 1.089592 12.132850 6.781411 -2.595690 -22.438531 -0.077764 -1.461232 -21.303225 0.000009 0.000015 -0.000000 -0.000001 -0.000001 
